<svg width="16" height="16" viewBox="0 0 16 16" fill="none" xmlns="http://www.w3.org/2000/svg">
<path d="M8.00065 1.3335C4.31732 1.3335 1.33399 4.31683 1.33399 8.00016C1.33318 9.3996 1.77305 10.7638 2.59119 11.8991C3.40933 13.0345 4.56421 13.8834 5.89199 14.3255C6.22532 14.3835 6.35065 14.1835 6.35065 14.0082C6.35065 13.8502 6.34199 13.3255 6.34199 12.7668C4.66732 13.0755 4.23399 12.3588 4.10065 11.9835C4.02532 11.7915 3.70065 11.2002 3.41732 11.0415C3.18399 10.9168 2.85065 10.6082 3.40865 10.6002C3.93399 10.5915 4.30865 11.0835 4.43399 11.2835C5.03399 12.2915 5.99199 12.0082 6.37532 11.8335C6.43399 11.4002 6.60865 11.1088 6.80065 10.9422C5.31732 10.7755 3.76732 10.2002 3.76732 7.65016C3.76732 6.92483 4.02532 6.3255 4.45065 5.85883C4.38399 5.69216 4.15065 5.00883 4.51732 4.09216C4.51732 4.09216 5.07532 3.91683 6.35065 4.77483C6.89339 4.62443 7.45413 4.54884 8.01732 4.55016C8.58399 4.55016 9.15065 4.62483 9.68399 4.77483C10.9593 3.90816 11.5173 4.09216 11.5173 4.09216C11.884 5.00883 11.6507 5.69216 11.584 5.85883C12.0087 6.3255 12.2673 6.91683 12.2673 7.65016C12.2673 10.2088 10.7093 10.7755 9.22599 10.9422C9.46732 11.1502 9.67599 11.5502 9.67599 12.1755C9.67599 13.0668 9.66732 13.7835 9.66732 14.0088C9.66732 14.1835 9.79265 14.3915 10.126 14.3248C11.4492 13.8779 12.599 13.0273 13.4135 11.8928C14.2281 10.7582 14.6663 9.39682 14.6667 8.00016C14.6667 4.31683 11.6833 1.3335 7.99999 1.3335" fill="white"/>
</svg>
