<svg width="16" height="16" viewBox="0 0 16 16" fill="none" xmlns="http://www.w3.org/2000/svg">
<path d="M8.00056 5.91931C6.85369 5.91931 5.91775 6.85525 5.91775 8.00212C5.91775 9.149 6.85369 10.0849 8.00056 10.0849C9.14744 10.0849 10.0834 9.149 10.0834 8.00212C10.0834 6.85525 9.14744 5.91931 8.00056 5.91931ZM14.2474 8.00212C14.2474 7.13962 14.2552 6.28494 14.2068 5.424C14.1584 4.424 13.9302 3.5365 13.199 2.80525C12.4662 2.07244 11.5802 1.84587 10.5802 1.79744C9.71775 1.749 8.86306 1.75681 8.00212 1.75681C7.13962 1.75681 6.28494 1.749 5.424 1.79744C4.424 1.84587 3.5365 2.074 2.80525 2.80525C2.07244 3.53806 1.84587 4.424 1.79744 5.424C1.749 6.2865 1.75681 7.14119 1.75681 8.00212C1.75681 8.86306 1.749 9.71931 1.79744 10.5802C1.84587 11.5802 2.074 12.4677 2.80525 13.199C3.53806 13.9318 4.424 14.1584 5.424 14.2068C6.2865 14.2552 7.14119 14.2474 8.00212 14.2474C8.86462 14.2474 9.71931 14.2552 10.5802 14.2068C11.5802 14.1584 12.4677 13.9302 13.199 13.199C13.9318 12.4662 14.1584 11.5802 14.2068 10.5802C14.2568 9.71931 14.2474 8.86462 14.2474 8.00212ZM8.00056 11.2068C6.22712 11.2068 4.79587 9.77556 4.79587 8.00212C4.79587 6.22869 6.22712 4.79744 8.00056 4.79744C9.774 4.79744 11.2052 6.22869 11.2052 8.00212C11.2052 9.77556 9.774 11.2068 8.00056 11.2068ZM11.3365 5.41462C10.9224 5.41462 10.5881 5.08025 10.5881 4.66619C10.5881 4.25212 10.9224 3.91775 11.3365 3.91775C11.7506 3.91775 12.0849 4.25212 12.0849 4.66619C12.0851 4.76451 12.0658 4.86189 12.0282 4.95275C11.9906 5.04361 11.9355 5.12616 11.866 5.19569C11.7965 5.26521 11.7139 5.32034 11.6231 5.3579C11.5322 5.39547 11.4348 5.41475 11.3365 5.41462Z" fill="white"/>
</svg>
