<svg width="16" height="16" viewBox="0 0 16 16" fill="none" xmlns="http://www.w3.org/2000/svg">
<g clip-path="url(#clip0_146_2332)">
<path d="M3.9998 1.73135C3.9998 2.58095 3.4318 3.31215 2.399 3.31215C1.427 3.31215 0.799805 2.62255 0.799805 1.77295C0.799805 0.900948 1.4078 0.131348 2.3998 0.131348C3.3918 0.131348 3.9806 0.859348 3.9998 1.73135ZM0.799805 14.5313V4.13135H3.9998V14.5313H0.799805Z" fill="white"/>
<path d="M5.60015 7.6888C5.60015 6.4528 5.55935 5.42 5.51855 4.528H8.39375L8.53615 5.9064H8.59696C9.00176 5.2576 9.99375 4.3064 11.6546 4.3064C13.6802 4.3064 15.2002 5.6624 15.2002 8.58V14.5336H12.0002V9.0448C12.0002 7.7696 11.5146 6.7968 10.4002 6.7968C9.55055 6.7968 9.12495 7.4848 8.90175 8.052C8.82015 8.2552 8.80015 8.5384 8.80015 8.8224V14.5336H5.60015V7.6888Z" fill="white"/>
</g>
<defs>
<clipPath id="clip0_146_2332">
<rect y="0.00012207" width="16" height="16" fill="white"/>
</clipPath>
</defs>
</svg>
