<svg width="64" height="64" viewBox="0 0 64 64" fill="none" xmlns="http://www.w3.org/2000/svg">
<g clip-path="url(#clip0_146_2254)">
<rect x="7.8999" y="7.90039" width="48.2" height="48.2" rx="11.3" fill="url(#paint0_linear_146_2254)" stroke="url(#paint1_linear_146_2254)" stroke-width="3"/>
</g>
<path d="M18.5923 32.6174V31.2851C19.3568 31.2851 19.8871 31.1326 20.1832 30.8277C20.4793 30.5227 20.6273 30.03 20.6273 29.3494V27.8845C20.6273 27.0669 20.74 26.4129 20.9654 25.9224C21.1952 25.4274 21.5134 25.054 21.9199 24.8021C22.3309 24.5502 22.817 24.3823 23.3783 24.2983C23.9395 24.2143 24.5538 24.1724 25.2211 24.1724V26.2803C24.6996 26.2803 24.3019 26.3488 24.0279 26.4858C23.7583 26.6184 23.5749 26.8261 23.4777 27.1089C23.3805 27.3873 23.3319 27.7409 23.3319 28.1695V30.1051C23.3319 30.441 23.27 30.7614 23.1463 31.0663C23.0225 31.3668 22.7927 31.6342 22.4569 31.8684C22.121 32.0982 21.6415 32.2816 21.0184 32.4186C20.3953 32.5512 19.5866 32.6174 18.5923 32.6174ZM25.2211 40.9498C24.5538 40.9498 23.9395 40.9078 23.3783 40.8239C22.817 40.7399 22.3309 40.572 21.9199 40.3201C21.5134 40.0682 21.1952 39.6948 20.9654 39.1998C20.74 38.7093 20.6273 38.0553 20.6273 37.2377V35.7661C20.6273 35.0856 20.4793 34.5928 20.1832 34.2879C19.8871 33.983 19.3568 33.8305 18.5923 33.8305V32.4981C19.5866 32.4981 20.3953 32.5666 21.0184 32.7036C21.6415 32.8362 22.121 33.0196 22.4569 33.2538C22.7927 33.4836 23.0225 33.751 23.1463 34.0559C23.27 34.3564 23.3319 34.6768 23.3319 35.0171V36.9527C23.3319 37.3769 23.3805 37.7282 23.4777 38.0066C23.5749 38.2895 23.7583 38.4972 24.0279 38.6298C24.3019 38.7667 24.6996 38.8352 25.2211 38.8352V40.9498ZM18.5923 33.8305V31.2851H20.972V33.8305H18.5923Z" fill="#B3FCFB"/>
<path d="M27.6844 38.1724C27.2469 38.1724 26.8713 38.0177 26.5575 37.7083C26.2482 37.3946 26.0935 37.019 26.0935 36.5815C26.0935 36.1484 26.2482 35.7772 26.5575 35.4678C26.8713 35.1585 27.2469 35.0038 27.6844 35.0038C28.1086 35.0038 28.4799 35.1585 28.798 35.4678C29.1162 35.7772 29.2753 36.1484 29.2753 36.5815C29.2753 36.8731 29.2002 37.1405 29.0499 37.3835C28.9041 37.6222 28.7119 37.8144 28.4732 37.9602C28.2346 38.1017 27.9716 38.1724 27.6844 38.1724Z" fill="#B3FCFB"/>
<path d="M32.4976 38.1724C32.0601 38.1724 31.6845 38.0177 31.3707 37.7083C31.0614 37.3946 30.9067 37.019 30.9067 36.5815C30.9067 36.1484 31.0614 35.7772 31.3707 35.4678C31.6845 35.1585 32.0601 35.0038 32.4976 35.0038C32.9219 35.0038 33.2931 35.1585 33.6113 35.4678C33.9294 35.7772 34.0885 36.1484 34.0885 36.5815C34.0885 36.8731 34.0134 37.1405 33.8632 37.3835C33.7173 37.6222 33.5251 37.8144 33.2865 37.9602C33.0478 38.1017 32.7849 38.1724 32.4976 38.1724Z" fill="#B3FCFB"/>
<path d="M37.3109 38.1724C36.8734 38.1724 36.4977 38.0177 36.184 37.7083C35.8746 37.3946 35.7199 37.019 35.7199 36.5815C35.7199 36.1484 35.8746 35.7772 36.184 35.4678C36.4977 35.1585 36.8734 35.0038 37.3109 35.0038C37.7351 35.0038 38.1063 35.1585 38.4245 35.4678C38.7427 35.7772 38.9018 36.1484 38.9018 36.5815C38.9018 36.8731 38.8266 37.1405 38.6764 37.3835C38.5306 37.6222 38.3383 37.8144 38.0997 37.9602C37.861 38.1017 37.5981 38.1724 37.3109 38.1724Z" fill="#B3FCFB"/>
<path d="M46.4063 32.4981V33.8305C45.6462 33.8305 45.1159 33.983 44.8154 34.2879C44.5193 34.5928 44.3712 35.0856 44.3712 35.7661V37.2377C44.3712 38.0553 44.2563 38.7093 44.0266 39.1998C43.8012 39.6948 43.483 40.0682 43.072 40.3201C42.6654 40.572 42.1815 40.7399 41.6203 40.8239C41.0635 40.9078 40.4492 40.9498 39.7775 40.9498V38.8352C40.299 38.8352 40.6945 38.7667 40.964 38.6298C41.238 38.4972 41.4236 38.2895 41.5209 38.0066C41.6181 37.7282 41.6667 37.3769 41.6667 36.9527V35.0171C41.6667 34.6768 41.7286 34.3564 41.8523 34.0559C41.976 33.751 42.2058 33.4836 42.5417 33.2538C42.8776 33.0196 43.357 32.8362 43.9801 32.7036C44.6033 32.5666 45.412 32.4981 46.4063 32.4981ZM39.7775 24.1724C40.4492 24.1724 41.0635 24.2143 41.6203 24.2983C42.1815 24.3823 42.6654 24.5502 43.072 24.8021C43.483 25.054 43.8012 25.4274 44.0266 25.9224C44.2563 26.4129 44.3712 27.0669 44.3712 27.8845V29.3494C44.3712 30.03 44.5193 30.5227 44.8154 30.8277C45.1159 31.1326 45.6462 31.2851 46.4063 31.2851V32.6174C45.412 32.6174 44.6033 32.5512 43.9801 32.4186C43.357 32.2816 42.8776 32.0982 42.5417 31.8684C42.2058 31.6342 41.976 31.3668 41.8523 31.0663C41.7286 30.7614 41.6667 30.441 41.6667 30.1051V28.1695C41.6667 27.7409 41.6181 27.3873 41.5209 27.1089C41.4236 26.8261 41.238 26.6184 40.964 26.4858C40.6945 26.3488 40.299 26.2803 39.7775 26.2803V24.1724ZM46.4063 31.2851V33.8305H44.0266V31.2851H46.4063Z" fill="#B3FCFB"/>
<defs>
<linearGradient id="paint0_linear_146_2254" x1="50.9018" y1="6.40039" x2="13.9999" y2="45" gradientUnits="userSpaceOnUse">
<stop stop-color="#B5FFFE"/>
<stop offset="0.519771" stop-color="#407574"/>
<stop offset="1" stop-color="#03181B"/>
</linearGradient>
<linearGradient id="paint1_linear_146_2254" x1="51.46" y1="8.75996" x2="11.4999" y2="53.5" gradientUnits="userSpaceOnUse">
<stop stop-color="#DBFCFC"/>
<stop offset="0.405322" stop-color="#B1FBFA"/>
<stop offset="0.743433" stop-color="#37F6F4"/>
<stop offset="1" stop-color="#133D3C"/>
</linearGradient>
<clipPath id="clip0_146_2254">
<rect x="6.3999" y="6.40039" width="51.2" height="51.2" rx="12" fill="white"/>
</clipPath>
</defs>
</svg>
