<svg width="40" height="40" viewBox="0 0 40 40" fill="none" xmlns="http://www.w3.org/2000/svg">
<rect x="4" y="4" width="32" height="32" rx="8" fill="#083D44"/>
<path d="M9.56913 19.9631V18.9638C10.1425 18.9638 10.5402 18.8494 10.7623 18.6207C10.9844 18.392 11.0954 18.0225 11.0954 17.5121V16.4134C11.0954 15.8002 11.1799 15.3097 11.349 14.9418C11.5213 14.5705 11.7599 14.2905 12.0649 14.1016C12.3731 13.9126 12.7377 13.7867 13.1586 13.7237C13.5795 13.6607 14.0402 13.6293 14.5407 13.6293V15.2102C14.1496 15.2102 13.8513 15.2616 13.6458 15.3643C13.4437 15.4638 13.3061 15.6196 13.2332 15.8317C13.1603 16.0405 13.1238 16.3056 13.1238 16.6271V18.0788C13.1238 18.3307 13.0774 18.571 12.9846 18.7997C12.8918 19.0251 12.7195 19.2256 12.4676 19.4013C12.2157 19.5736 11.8561 19.7112 11.3887 19.8139C10.9214 19.9134 10.3149 19.9631 9.56913 19.9631ZM14.5407 26.2124C14.0402 26.2124 13.5795 26.1809 13.1586 26.1179C12.7377 26.0549 12.3731 25.929 12.0649 25.7401C11.7599 25.5511 11.5213 25.2711 11.349 24.8999C11.1799 24.532 11.0954 24.0414 11.0954 23.4283V22.3246C11.0954 21.8142 10.9844 21.4446 10.7623 21.2159C10.5402 20.9872 10.1425 20.8729 9.56913 20.8729V19.8736C10.3149 19.8736 10.9214 19.925 11.3887 20.0277C11.8561 20.1271 12.2157 20.2647 12.4676 20.4403C12.7195 20.6127 12.8918 20.8132 12.9846 21.0419C13.0774 21.2673 13.1238 21.5076 13.1238 21.7628V23.2145C13.1238 23.5327 13.1603 23.7962 13.2332 24.005C13.3061 24.2171 13.4437 24.3729 13.6458 24.4723C13.8513 24.575 14.1496 24.6264 14.5407 24.6264V26.2124ZM9.56913 20.8729V18.9638H11.3539V20.8729H9.56913ZM16.3882 24.1293C16.0601 24.1293 15.7784 24.0133 15.543 23.7812C15.311 23.5459 15.195 23.2642 15.195 22.9361C15.195 22.6113 15.311 22.3329 15.543 22.1009C15.7784 21.8688 16.0601 21.7528 16.3882 21.7528C16.7064 21.7528 16.9848 21.8688 17.2234 22.1009C17.4621 22.3329 17.5814 22.6113 17.5814 22.9361C17.5814 23.1548 17.5251 23.3554 17.4124 23.5376C17.303 23.7166 17.1588 23.8608 16.9798 23.9702C16.8009 24.0762 16.6036 24.1293 16.3882 24.1293ZM19.9981 24.1293C19.67 24.1293 19.3883 24.0133 19.153 23.7812C18.921 23.5459 18.805 23.2642 18.805 22.9361C18.805 22.6113 18.921 22.3329 19.153 22.1009C19.3883 21.8688 19.67 21.7528 19.9981 21.7528C20.3163 21.7528 20.5947 21.8688 20.8334 22.1009C21.072 22.3329 21.1913 22.6113 21.1913 22.9361C21.1913 23.1548 21.135 23.3554 21.0223 23.5376C20.9129 23.7166 20.7687 23.8608 20.5898 23.9702C20.4108 24.0762 20.2136 24.1293 19.9981 24.1293ZM23.6081 24.1293C23.2799 24.1293 22.9982 24.0133 22.7629 23.7812C22.5309 23.5459 22.4149 23.2642 22.4149 22.9361C22.4149 22.6113 22.5309 22.3329 22.7629 22.1009C22.9982 21.8688 23.2799 21.7528 23.6081 21.7528C23.9262 21.7528 24.2046 21.8688 24.4433 22.1009C24.6819 22.3329 24.8012 22.6113 24.8012 22.9361C24.8012 23.1548 24.7449 23.3554 24.6322 23.5376C24.5228 23.7166 24.3787 23.8608 24.1997 23.9702C24.0207 24.0762 23.8235 24.1293 23.6081 24.1293ZM30.4296 19.8736V20.8729C29.8596 20.8729 29.4618 20.9872 29.2364 21.2159C29.0144 21.4446 28.9034 21.8142 28.9034 22.3246V23.4283C28.9034 24.0414 28.8172 24.532 28.6448 24.8999C28.4758 25.2711 28.2372 25.5511 27.9289 25.7401C27.624 25.929 27.2611 26.0549 26.8401 26.1179C26.4225 26.1809 25.9618 26.2124 25.458 26.2124V24.6264C25.8491 24.6264 26.1458 24.575 26.348 24.4723C26.5534 24.3729 26.6926 24.2171 26.7656 24.005C26.8385 23.7962 26.8749 23.5327 26.8749 23.2145V21.7628C26.8749 21.5076 26.9213 21.2673 27.0141 21.0419C27.1069 20.8132 27.2793 20.6127 27.5312 20.4403C27.7831 20.2647 28.1427 20.1271 28.61 20.0277C29.0774 19.925 29.6839 19.8736 30.4296 19.8736ZM25.458 13.6293C25.9618 13.6293 26.4225 13.6607 26.8401 13.7237C27.2611 13.7867 27.624 13.9126 27.9289 14.1016C28.2372 14.2905 28.4758 14.5705 28.6448 14.9418C28.8172 15.3097 28.9034 15.8002 28.9034 16.4134V17.5121C28.9034 18.0225 29.0144 18.392 29.2364 18.6207C29.4618 18.8494 29.8596 18.9638 30.4296 18.9638V19.9631C29.6839 19.9631 29.0774 19.9134 28.61 19.8139C28.1427 19.7112 27.7831 19.5736 27.5312 19.4013C27.2793 19.2256 27.1069 19.0251 27.0141 18.7997C26.9213 18.571 26.8749 18.3307 26.8749 18.0788V16.6271C26.8749 16.3056 26.8385 16.0405 26.7656 15.8317C26.6926 15.6196 26.5534 15.4638 26.348 15.3643C26.1458 15.2616 25.8491 15.2102 25.458 15.2102V13.6293ZM30.4296 18.9638V20.8729H28.6448V18.9638H30.4296Z" fill="#B5FFFE"/>
</svg>
