<svg width="124" height="40" viewBox="0 0 124 40" fill="none" xmlns="http://www.w3.org/2000/svg">
<path d="M55.0464 28.2578C53.7788 28.2578 52.6867 28.0466 51.77 27.6241C50.8534 27.1944 50.1444 26.5856 49.6431 25.7979C49.1418 25.003 48.884 24.0576 48.8696 22.9619H51.3188C51.3332 23.628 51.4907 24.2009 51.7915 24.6807C52.0994 25.1534 52.5291 25.515 53.0806 25.7657C53.6392 26.0091 54.2944 26.1309 55.0464 26.1309C55.7554 26.1309 56.3748 26.027 56.9048 25.8194C57.4347 25.6117 57.8465 25.3181 58.1401 24.9385C58.4409 24.5589 58.5913 24.1114 58.5913 23.5957C58.5913 23.1804 58.4839 22.8223 58.269 22.5215C58.0542 22.2207 57.7212 21.9593 57.27 21.7373C56.826 21.5153 56.2495 21.322 55.5405 21.1573L53.7681 20.7276C52.214 20.348 51.0682 19.8109 50.3306 19.1162C49.5929 18.4216 49.2241 17.5228 49.2241 16.42C49.2241 15.4746 49.4604 14.6547 49.9331 13.96C50.4129 13.2582 51.0825 12.7139 51.9419 12.3272C52.8084 11.9405 53.8075 11.7471 54.939 11.7471C56.0848 11.7471 57.0802 11.9476 57.9253 12.3487C58.7703 12.7497 59.4292 13.319 59.9019 14.0567C60.3745 14.7943 60.6252 15.6644 60.6538 16.667H58.2798C58.2225 15.7933 57.8895 15.1094 57.2808 14.6153C56.6792 14.1211 55.8843 13.8741 54.896 13.8741C54.2658 13.8741 53.7072 13.9779 53.2202 14.1856C52.7332 14.3933 52.3501 14.6797 52.0708 15.045C51.7987 15.403 51.6626 15.8184 51.6626 16.291C51.6626 16.6992 51.7736 17.0466 51.9956 17.333C52.2248 17.6195 52.5614 17.8701 53.0054 18.085C53.4565 18.2927 54.0116 18.4753 54.6704 18.6328L56.3462 19.041C57.091 19.2201 57.7534 19.4385 58.3335 19.6963C58.9136 19.9541 59.4041 20.2657 59.8052 20.6309C60.2062 20.989 60.5106 21.4043 60.7183 21.877C60.9259 22.3496 61.0298 22.8903 61.0298 23.4991C61.0298 24.4444 60.7863 25.2751 60.2993 25.9912C59.8123 26.7074 59.1213 27.266 58.2261 27.667C57.3309 28.0609 56.271 28.2578 55.0464 28.2578ZM68.1948 28.2578C67.0991 28.2578 66.1395 28.0072 65.3159 27.5059C64.4924 26.9974 63.8514 26.2956 63.3931 25.4004C62.9347 24.5052 62.7056 23.4668 62.7056 22.2852C62.7056 21.0964 62.9347 20.0508 63.3931 19.1485C63.8514 18.2461 64.4924 17.5443 65.3159 17.043C66.1395 16.5345 67.0991 16.2803 68.1948 16.2803C69.2905 16.2803 70.2466 16.5345 71.063 17.043C71.8866 17.5443 72.5275 18.2461 72.9858 19.1485C73.4442 20.0508 73.6733 21.0964 73.6733 22.2852C73.6733 23.4668 73.4442 24.5052 72.9858 25.4004C72.5275 26.2956 71.8866 26.9974 71.063 27.5059C70.2466 28.0072 69.2905 28.2578 68.1948 28.2578ZM68.1948 26.2598C68.8537 26.2598 69.4123 26.0951 69.8706 25.7657C70.3361 25.4291 70.6906 24.9636 70.9341 24.3692C71.1847 23.7676 71.3101 23.0729 71.3101 22.2852C71.3101 21.4831 71.1847 20.7849 70.9341 20.1905C70.6906 19.5889 70.3361 19.1198 69.8706 18.7832C69.4123 18.4466 68.8537 18.2784 68.1948 18.2784C67.536 18.2784 66.9738 18.4466 66.5083 18.7832C66.0428 19.1198 65.6883 19.5889 65.4448 20.1905C65.2013 20.7849 65.0796 21.4831 65.0796 22.2852C65.0796 23.0729 65.2013 23.7676 65.4448 24.3692C65.6883 24.9636 66.0428 25.4291 66.5083 25.7657C66.9738 26.0951 67.536 26.2598 68.1948 26.2598ZM81.4614 16.5166V18.4287H74.6509V16.5166H81.4614ZM76.7349 28V14.7979C76.7349 14.1605 76.8709 13.6234 77.1431 13.1866C77.4152 12.7425 77.7983 12.406 78.2925 12.1768C78.7938 11.9476 79.381 11.833 80.0542 11.833C80.3908 11.833 80.6987 11.8438 80.978 11.8653C81.2645 11.8796 81.4614 11.8939 81.5688 11.9082L81.4507 13.8203C81.3647 13.8132 81.2144 13.806 80.9995 13.7989C80.7847 13.7845 80.5949 13.7774 80.4302 13.7774C79.9432 13.7774 79.5959 13.8884 79.3882 14.1104C79.1805 14.3252 79.0767 14.6726 79.0767 15.1524V28H76.7349ZM87.939 16.5166V18.4287H81.3325V16.5166H87.939ZM83.2769 13.4659H85.6187V24.917C85.6187 25.3467 85.7082 25.6511 85.8872 25.8301C86.0662 26.0091 86.3813 26.0987 86.8325 26.0987C86.9901 26.0987 87.1727 26.0951 87.3804 26.0879C87.5952 26.0808 87.7743 26.0736 87.9175 26.0664L88.0142 27.9785C87.8065 28 87.5666 28.0144 87.2944 28.0215C87.0223 28.0287 86.7609 28.0323 86.5103 28.0323C85.4289 28.0323 84.6196 27.7959 84.0825 27.3233C83.5454 26.8506 83.2769 26.1452 83.2769 25.2071V13.4659ZM95.8452 22.8116H98.2192L99.895 24.9922L100.668 25.959L103.343 29.4395H100.894L99.1323 27.1192L98.4771 26.2705L95.8452 22.8116ZM96.8013 28.2471C95.3833 28.2471 94.1193 27.9034 93.0093 27.2159C91.9064 26.5284 91.0363 25.5687 90.3989 24.3369C89.7687 23.098 89.4536 21.655 89.4536 20.0078C89.4536 18.3464 89.7687 16.8998 90.3989 15.668C91.0363 14.4291 91.9064 13.4659 93.0093 12.7784C94.1193 12.0909 95.3833 11.7471 96.8013 11.7471C98.2121 11.7471 99.4689 12.0909 100.572 12.7784C101.682 13.4659 102.552 14.4291 103.182 15.668C103.819 16.8998 104.138 18.3464 104.138 20.0078C104.138 21.655 103.819 23.098 103.182 24.3369C102.552 25.5759 101.682 26.5391 100.572 27.2266C99.4689 27.9069 98.2121 28.2471 96.8013 28.2471ZM96.8013 26.0235C97.7108 26.0235 98.5343 25.7907 99.272 25.3252C100.01 24.8597 100.593 24.1794 101.023 23.2842C101.46 22.389 101.678 21.2969 101.678 20.0078C101.678 18.7116 101.46 17.6159 101.023 16.7207C100.593 15.8184 100.01 15.1345 99.272 14.669C98.5343 14.2035 97.7108 13.9707 96.8013 13.9707C95.8846 13.9707 95.0575 14.2035 94.3198 14.669C93.5822 15.1345 92.995 15.8184 92.5581 16.7207C92.1213 17.6159 91.9028 18.7116 91.9028 20.0078C91.9028 21.2969 92.1213 22.389 92.5581 23.2842C92.995 24.1794 93.5822 24.8597 94.3198 25.3252C95.0575 25.7907 95.8846 26.0235 96.8013 26.0235ZM104.579 28L110.358 11.9942H113.344L119.102 28H116.438L113.387 19.0625C113.129 18.2963 112.854 17.4476 112.56 16.5166C112.274 15.5785 111.93 14.4326 111.529 13.0791H112.173C111.772 14.4326 111.425 15.5785 111.131 16.5166C110.838 17.4548 110.562 18.3034 110.304 19.0625L107.2 28H104.579ZM107.801 23.8643V21.8018H115.901V23.8643H107.801Z" fill="#083D44"/>
<rect x="4" y="4" width="32" height="32" rx="8" fill="#083D44"/>
<path d="M9.56913 19.9631V18.9638C10.1425 18.9638 10.5402 18.8494 10.7623 18.6207C10.9844 18.392 11.0954 18.0225 11.0954 17.5121V16.4134C11.0954 15.8002 11.1799 15.3097 11.349 14.9418C11.5213 14.5705 11.7599 14.2905 12.0649 14.1016C12.3731 13.9126 12.7377 13.7867 13.1586 13.7237C13.5795 13.6607 14.0402 13.6293 14.5407 13.6293V15.2102C14.1496 15.2102 13.8513 15.2616 13.6458 15.3643C13.4437 15.4638 13.3061 15.6196 13.2332 15.8317C13.1603 16.0405 13.1238 16.3056 13.1238 16.6271V18.0788C13.1238 18.3307 13.0774 18.571 12.9846 18.7997C12.8918 19.0251 12.7195 19.2256 12.4676 19.4013C12.2157 19.5736 11.8561 19.7112 11.3887 19.8139C10.9214 19.9134 10.3149 19.9631 9.56913 19.9631ZM14.5407 26.2124C14.0402 26.2124 13.5795 26.1809 13.1586 26.1179C12.7377 26.0549 12.3731 25.929 12.0649 25.7401C11.7599 25.5511 11.5213 25.2711 11.349 24.8999C11.1799 24.532 11.0954 24.0414 11.0954 23.4283V22.3246C11.0954 21.8142 10.9844 21.4446 10.7623 21.2159C10.5402 20.9872 10.1425 20.8729 9.56913 20.8729V19.8736C10.3149 19.8736 10.9214 19.925 11.3887 20.0277C11.8561 20.1271 12.2157 20.2647 12.4676 20.4403C12.7195 20.6127 12.8918 20.8132 12.9846 21.0419C13.0774 21.2673 13.1238 21.5076 13.1238 21.7628V23.2145C13.1238 23.5327 13.1603 23.7962 13.2332 24.005C13.3061 24.2171 13.4437 24.3729 13.6458 24.4723C13.8513 24.575 14.1496 24.6264 14.5407 24.6264V26.2124ZM9.56913 20.8729V18.9638H11.3539V20.8729H9.56913ZM16.3882 24.1293C16.0601 24.1293 15.7784 24.0133 15.543 23.7812C15.311 23.5459 15.195 23.2642 15.195 22.9361C15.195 22.6113 15.311 22.3329 15.543 22.1009C15.7784 21.8688 16.0601 21.7528 16.3882 21.7528C16.7064 21.7528 16.9848 21.8688 17.2234 22.1009C17.4621 22.3329 17.5814 22.6113 17.5814 22.9361C17.5814 23.1548 17.5251 23.3554 17.4124 23.5376C17.303 23.7166 17.1588 23.8608 16.9798 23.9702C16.8009 24.0762 16.6036 24.1293 16.3882 24.1293ZM19.9981 24.1293C19.67 24.1293 19.3883 24.0133 19.153 23.7812C18.921 23.5459 18.805 23.2642 18.805 22.9361C18.805 22.6113 18.921 22.3329 19.153 22.1009C19.3883 21.8688 19.67 21.7528 19.9981 21.7528C20.3163 21.7528 20.5947 21.8688 20.8334 22.1009C21.072 22.3329 21.1913 22.6113 21.1913 22.9361C21.1913 23.1548 21.135 23.3554 21.0223 23.5376C20.9129 23.7166 20.7687 23.8608 20.5898 23.9702C20.4108 24.0762 20.2136 24.1293 19.9981 24.1293ZM23.6081 24.1293C23.2799 24.1293 22.9982 24.0133 22.7629 23.7812C22.5309 23.5459 22.4149 23.2642 22.4149 22.9361C22.4149 22.6113 22.5309 22.3329 22.7629 22.1009C22.9982 21.8688 23.2799 21.7528 23.6081 21.7528C23.9262 21.7528 24.2046 21.8688 24.4433 22.1009C24.6819 22.3329 24.8012 22.6113 24.8012 22.9361C24.8012 23.1548 24.7449 23.3554 24.6322 23.5376C24.5228 23.7166 24.3787 23.8608 24.1997 23.9702C24.0207 24.0762 23.8235 24.1293 23.6081 24.1293ZM30.4296 19.8736V20.8729C29.8596 20.8729 29.4618 20.9872 29.2364 21.2159C29.0144 21.4446 28.9034 21.8142 28.9034 22.3246V23.4283C28.9034 24.0414 28.8172 24.532 28.6448 24.8999C28.4758 25.2711 28.2372 25.5511 27.9289 25.7401C27.624 25.929 27.2611 26.0549 26.8401 26.1179C26.4225 26.1809 25.9618 26.2124 25.458 26.2124V24.6264C25.8491 24.6264 26.1458 24.575 26.348 24.4723C26.5534 24.3729 26.6926 24.2171 26.7656 24.005C26.8385 23.7962 26.8749 23.5327 26.8749 23.2145V21.7628C26.8749 21.5076 26.9213 21.2673 27.0141 21.0419C27.1069 20.8132 27.2793 20.6127 27.5312 20.4403C27.7831 20.2647 28.1427 20.1271 28.61 20.0277C29.0774 19.925 29.6839 19.8736 30.4296 19.8736ZM25.458 13.6293C25.9618 13.6293 26.4225 13.6607 26.8401 13.7237C27.2611 13.7867 27.624 13.9126 27.9289 14.1016C28.2372 14.2905 28.4758 14.5705 28.6448 14.9418C28.8172 15.3097 28.9034 15.8002 28.9034 16.4134V17.5121C28.9034 18.0225 29.0144 18.392 29.2364 18.6207C29.4618 18.8494 29.8596 18.9638 30.4296 18.9638V19.9631C29.6839 19.9631 29.0774 19.9134 28.61 19.8139C28.1427 19.7112 27.7831 19.5736 27.5312 19.4013C27.2793 19.2256 27.1069 19.0251 27.0141 18.7997C26.9213 18.571 26.8749 18.3307 26.8749 18.0788V16.6271C26.8749 16.3056 26.8385 16.0405 26.7656 15.8317C26.6926 15.6196 26.5534 15.4638 26.348 15.3643C26.1458 15.2616 25.8491 15.2102 25.458 15.2102V13.6293ZM30.4296 18.9638V20.8729H28.6448V18.9638H30.4296Z" fill="#B5FFFE"/>
</svg>
